<?xml version="1.0" standalone="no"?><svg xmlns:xlink="http://www.w3.org/1999/xlink" xmlns="http://www.w3.org/2000/svg" viewBox="0 0 1000 500.00000000000006" preserveAspectRatio="xMaxYMax slice"><g transform="scale(0.6622516556291391)"><rect x="0" y="0" width="1510" height="755" fill="#ffffff"/><rect x="0" y="0" width="107.86" height="107.86" fill="#c143e7"/><rect x="0" y="0" width="107.86" height="107.86" fill="#d98cf1"/><rect x="107.86" y="0" width="107.86" height="107.86" fill="#e5b0f5"/><polygon points="107.86,0 215.72,0 215.72,107.86" fill="#ffdfe7"/><rect x="215.71" y="0" width="107.86" height="107.86" fill="#ffdde5"/><path d="M 215.71 107.86 A 107.86 107.86 0 0 0 323.57 0 L 215.71 0" fill="#b724e3"/><rect x="323.57" y="0" width="107.86" height="107.86" fill="#ff99b1"/><rect x="323.57" y="0" width="107.86" height="107.86" fill="#ff7092"/><rect x="431.43" y="0" width="107.86" height="107.86" fill="#ff7394"/><rect x="431.43" y="0" width="107.86" height="107.86" fill="#ffa7bc"/><rect x="539.29" y="0" width="107.86" height="107.86" fill="#ff5b82"/><path d="M 539.29 107.86 A 107.86 107.86 0 0 1  647.15 0 L 647.15 107.86" fill="#fdfafe"/><rect x="647.14" y="0" width="107.86" height="107.86" fill="#f0d1f9"/><path d="M 647.14 107.86 A 107.86 107.86 0 0 1  755 0 L 755 107.86" fill="#b725e4"/><rect x="755" y="0" width="107.86" height="107.86" fill="#d57eef"/><polygon points="755,0 862.86,0 755,107.86" fill="#c246e8"/><rect x="862.86" y="0" width="107.86" height="107.86" fill="#ffbaca"/><polygon points="862.86,0 970.72,107.86 862.86,107.86" fill="#d379ee"/><rect x="970.71" y="0" width="107.86" height="107.86" fill="#ff8ba7"/><polygon points="970.71,0 1078.57,107.86 970.71,107.86" fill="#ff4571"/><rect x="1078.57" y="0" width="107.86" height="107.86" fill="#ff3a69"/><rect x="1078.57" y="0" width="107.86" height="107.86" fill="#ca5feb"/><rect x="1186.43" y="0" width="107.86" height="107.86" fill="#e3aaf4"/><polygon points="1186.43,0 1294.29,107.86 1186.43,107.86" fill="#ffbecd"/><rect x="1294.29" y="0" width="107.86" height="107.86" fill="#e2a8f4"/><path d="M 1294.29 0 A 107.86 107.86 0 0 1  1402.1499999999999 107.86 L 1294.29 0 A 107.86 107.86 0 0 0 1402.1499999999999 107.86" fill="#ca5deb"/><rect x="1402.14" y="0" width="107.86" height="107.86" fill="#bf3ee7"/><rect x="1402.14" y="0" width="107.86" height="107.86" fill="#fcf7fe"/><rect x="0" y="107.86" width="107.86" height="107.86" fill="#ff4874"/><path d="M 0 107.86 A 107.86 107.86 0 0 1 107.86 215.72 L 0 215.72" fill="#ffc7d4"/><rect x="107.86" y="107.86" width="107.86" height="107.86" fill="#ffc6d4"/><path d="M 107.86 107.86 A 107.86 107.86 0 0 0 215.72 215.72 L 215.72 107.86" fill="#ff668a"/><rect x="215.71" y="107.86" width="107.86" height="107.86" fill="#ffc7d4"/><polygon points="215.71,107.86 323.57,107.86 323.57,215.72" fill="#ff4873"/><rect x="323.57" y="107.86" width="107.86" height="107.86" fill="#e9bcf7"/><path d="M 323.57 215.72 A 107.86 107.86 0 0 1  431.43 107.86 L 323.57 215.72 A 107.86 107.86 0 0 0 431.43 107.86" fill="#c859ea"/><rect x="431.43" y="107.86" width="107.86" height="107.86" fill="#ff5c83"/><path d="M 431.43 215.72 A 107.86 107.86 0 0 0 539.29 107.86 L 431.43 107.86" fill="#ff93ac"/><rect x="539.29" y="107.86" width="107.86" height="107.86" fill="#e7b6f6"/><polygon points="539.29,107.86 647.15,107.86 539.29,215.72" fill="#fbf1fd"/><rect x="647.14" y="107.86" width="107.86" height="107.86" fill="#e3abf4"/><rect x="647.14" y="107.86" width="107.86" height="107.86" fill="#ffafc2"/><rect x="755" y="107.86" width="107.86" height="107.86" fill="#d47cef"/><path d="M 755 215.72 A 107.86 107.86 0 0 1  862.86 107.86 L 862.86 215.72" fill="#b724e4"/><rect x="862.86" y="107.86" width="107.86" height="107.86" fill="#db90f1"/><path d="M 862.86 215.72 A 107.86 107.86 0 0 1  970.72 107.86 L 862.86 215.72 A 107.86 107.86 0 0 0 970.72 107.86" fill="#ffc0cf"/><rect x="970.71" y="107.86" width="107.86" height="107.86" fill="#f7e6fc"/><polygon points="1078.57,107.86 1078.57,215.72 970.71,215.72" fill="#ff7a9a"/><rect x="1078.57" y="107.86" width="107.86" height="107.86" fill="#e8b9f6"/><path d="M 1078.57 215.72 A 107.86 107.86 0 0 1  1186.4299999999998 107.86 L 1078.57 215.72 A 107.86 107.86 0 0 0 1186.4299999999998 107.86" fill="#e0a2f3"/><rect x="1186.43" y="107.86" width="107.86" height="107.86" fill="#d37aee"/><polygon points="1186.43,107.86 1294.29,107.86 1294.29,215.72" fill="#bc33e5"/><rect x="1294.29" y="107.86" width="107.86" height="107.86" fill="#ff9cb4"/><path d="M 1294.29 107.86 A 107.86 107.86 0 0 1 1402.1499999999999 215.72 L 1294.29 215.72" fill="#fff2f5"/><rect x="1402.14" y="107.86" width="107.86" height="107.86" fill="#fff3f6"/><polygon points="1510,107.86 1510,215.72 1402.14,215.72" fill="#ffced9"/><rect x="0" y="215.71" width="107.86" height="107.86" fill="#c348e8"/><polygon points="0,215.71 107.86,323.57 0,323.57" fill="#ebc3f7"/><rect x="107.86" y="215.71" width="107.86" height="107.86" fill="#e5aff5"/><rect x="107.86" y="215.71" width="107.86" height="107.86" fill="#cb62eb"/><rect x="215.71" y="215.71" width="107.86" height="107.86" fill="#ffbbcc"/><path d="M 215.71 323.57 A 107.86 107.86 0 0 1  323.57 215.71 L 215.71 323.57 A 107.86 107.86 0 0 0 323.57 215.71" fill="#bb31e5"/><rect x="323.57" y="215.71" width="107.86" height="107.86" fill="#ca5eeb"/><path d="M 323.57 215.71 A 107.86 107.86 0 0 0 431.43 323.57 L 431.43 215.71" fill="#ff8ea9"/><rect x="431.43" y="215.71" width="107.86" height="107.86" fill="#eecaf8"/><path d="M 431.43 215.71 A 107.86 107.86 0 0 1 539.29 323.57 L 431.43 323.57" fill="#fff7f9"/><rect x="539.29" y="215.71" width="107.86" height="107.86" fill="#ff809e"/><path d="M 539.29 323.57 A 107.86 107.86 0 0 1  647.15 215.71 L 647.15 323.57" fill="#e9bcf7"/><rect x="647.14" y="215.71" width="107.86" height="107.86" fill="#ff6f92"/><path d="M 647.14 215.71 A 107.86 107.86 0 0 1 755 323.57 L 647.14 323.57" fill="#efcef9"/><rect x="755" y="215.71" width="107.86" height="107.86" fill="#ff819f"/><path d="M 755 215.71 A 107.86 107.86 0 0 1  862.86 323.57 L 755 215.71 A 107.86 107.86 0 0 0 862.86 323.57" fill="#ffa3b9"/><rect x="862.86" y="215.71" width="107.86" height="107.86" fill="#ffd1dc"/><path d="M 862.86 215.71 A 107.86 107.86 0 0 1 970.72 323.57 L 862.86 323.57" fill="#ff416e"/><rect x="970.71" y="215.71" width="107.86" height="107.86" fill="#cd66ec"/><polygon points="1078.57,215.71 1078.57,323.57 970.71,323.57" fill="#cd67ec"/><rect x="1078.57" y="215.71" width="107.86" height="107.86" fill="#ffa0b7"/><polygon points="1078.57,215.71 1186.4299999999998,215.71 1186.4299999999998,323.57" fill="#ff6489"/><rect x="1186.43" y="215.71" width="107.86" height="107.86" fill="#d581ef"/><polygon points="1294.29,215.71 1294.29,323.57 1186.43,323.57" fill="#fbf3fe"/><rect x="1294.29" y="215.71" width="107.86" height="107.86" fill="#ca5feb"/><path d="M 1294.29 323.57 A 107.86 107.86 0 0 1  1402.1499999999999 215.71 L 1402.1499999999999 323.57" fill="#d070ed"/><rect x="1402.14" y="215.71" width="107.86" height="107.86" fill="#eeccf9"/><rect x="1402.14" y="215.71" width="107.86" height="107.86" fill="#ff86a3"/><rect x="0" y="323.57" width="107.86" height="107.86" fill="#b92ae4"/><path d="M 0 323.57 A 107.86 107.86 0 0 1 107.86 431.43 L 0 431.43" fill="#ff85a2"/><rect x="107.86" y="323.57" width="107.86" height="107.86" fill="#eeccf9"/><path d="M 107.86 323.57 A 107.86 107.86 0 0 0 215.72 431.43 L 215.72 323.57" fill="#eabef7"/><rect x="215.71" y="323.57" width="107.86" height="107.86" fill="#ff86a3"/><polygon points="215.71,323.57 323.57,431.43 215.71,431.43" fill="#ffe4eb"/><rect x="323.57" y="323.57" width="107.86" height="107.86" fill="#b41ce3"/><polygon points="323.57,323.57 431.43,431.43 323.57,431.43" fill="#ffd3dd"/><rect x="431.43" y="323.57" width="107.86" height="107.86" fill="#d784f0"/><polygon points="431.43,323.57 539.29,323.57 539.29,431.43" fill="#ffcfda"/><rect x="539.29" y="323.57" width="107.86" height="107.86" fill="#cc64ec"/><polygon points="647.15,323.57 647.15,431.43 539.29,431.43" fill="#b826e4"/><rect x="647.14" y="323.57" width="107.86" height="107.86" fill="#ff93ac"/><path d="M 647.14 431.43 A 107.86 107.86 0 0 1  755 323.57 L 647.14 431.43 A 107.86 107.86 0 0 0 755 323.57" fill="#ff5c83"/><rect x="755" y="323.57" width="107.86" height="107.86" fill="#b724e3"/><polygon points="755,323.57 862.86,323.57 862.86,431.43" fill="#e3abf4"/><rect x="862.86" y="323.57" width="107.86" height="107.86" fill="#f9ecfd"/><path d="M 862.86 323.57 A 107.86 107.86 0 0 1 970.72 431.43 L 862.86 431.43" fill="#dc95f2"/><rect x="970.71" y="323.57" width="107.86" height="107.86" fill="#b51de3"/><polygon points="970.71,323.57 1078.57,323.57 1078.57,431.43" fill="#cd66ec"/><rect x="1078.57" y="323.57" width="107.86" height="107.86" fill="#c756ea"/><polygon points="1078.57,323.57 1186.4299999999998,323.57 1186.4299999999998,431.43" fill="#ffcbd7"/><rect x="1186.43" y="323.57" width="107.86" height="107.86" fill="#ffe1e8"/><path d="M 1186.43 431.43 A 107.86 107.86 0 0 1  1294.29 323.57 L 1294.29 431.43" fill="#ff6f91"/><rect x="1294.29" y="323.57" width="107.86" height="107.86" fill="#ff557d"/><path d="M 1294.29 323.57 A 107.86 107.86 0 0 1  1402.1499999999999 431.43 L 1294.29 323.57 A 107.86 107.86 0 0 0 1402.1499999999999 431.43" fill="#ff4471"/><rect x="1402.14" y="323.57" width="107.86" height="107.86" fill="#f0d0f9"/><rect x="1402.14" y="323.57" width="107.86" height="107.86" fill="#ffbccc"/><rect x="0" y="431.43" width="107.86" height="107.86" fill="#cf6ded"/><rect x="0" y="431.43" width="107.86" height="107.86" fill="#f8ebfc"/><rect x="107.86" y="431.43" width="107.86" height="107.86" fill="#e1a3f3"/><path d="M 107.86 539.29 A 107.86 107.86 0 0 1  215.72 431.43 L 215.72 539.29" fill="#e8baf6"/><rect x="215.71" y="431.43" width="107.86" height="107.86" fill="#ffc1d0"/><rect x="215.71" y="431.43" width="107.86" height="107.86" fill="#ffcbd7"/><rect x="323.57" y="431.43" width="107.86" height="107.86" fill="#dc95f2"/><rect x="323.57" y="431.43" width="107.86" height="107.86" fill="#c651e9"/><rect x="431.43" y="431.43" width="107.86" height="107.86" fill="#ff698d"/><rect x="431.43" y="431.43" width="107.86" height="107.86" fill="#e8bbf6"/><rect x="539.29" y="431.43" width="107.86" height="107.86" fill="#eabff7"/><polygon points="539.29,431.43 647.15,539.29 539.29,539.29" fill="#ffb2c4"/><rect x="647.14" y="431.43" width="107.86" height="107.86" fill="#ffc8d5"/><polygon points="755,431.43 755,539.29 647.14,539.29" fill="#ff6d90"/><rect x="755" y="431.43" width="107.86" height="107.86" fill="#fffdfd"/><rect x="755" y="431.43" width="107.86" height="107.86" fill="#ff85a2"/><rect x="862.86" y="431.43" width="107.86" height="107.86" fill="#cc63eb"/><rect x="862.86" y="431.43" width="107.86" height="107.86" fill="#ff8ba6"/><rect x="970.71" y="431.43" width="107.86" height="107.86" fill="#ffaabe"/><polygon points="1078.57,431.43 1078.57,539.29 970.71,539.29" fill="#da8df1"/><rect x="1078.57" y="431.43" width="107.86" height="107.86" fill="#b726e4"/><rect x="1078.57" y="431.43" width="107.86" height="107.86" fill="#d47cef"/><rect x="1186.43" y="431.43" width="107.86" height="107.86" fill="#d37bee"/><polygon points="1186.43,431.43 1294.29,539.29 1186.43,539.29" fill="#ff5b82"/><rect x="1294.29" y="431.43" width="107.86" height="107.86" fill="#ffbfce"/><path d="M 1294.29 539.29 A 107.86 107.86 0 0 0 1402.1499999999999 431.43 L 1294.29 431.43" fill="#db93f1"/><rect x="1402.14" y="431.43" width="107.86" height="107.86" fill="#b41ae2"/><rect x="1402.14" y="431.43" width="107.86" height="107.86" fill="#f2d8fa"/><rect x="0" y="539.29" width="107.86" height="107.86" fill="#ff6d90"/><polygon points="0,539.29 107.86,647.15 0,647.15" fill="#f0d2f9"/><rect x="107.86" y="539.29" width="107.86" height="107.86" fill="#ff90aa"/><rect x="107.86" y="539.29" width="107.86" height="107.86" fill="#e4aef5"/><rect x="215.71" y="539.29" width="107.86" height="107.86" fill="#bb30e5"/><path d="M 215.71 647.15 A 107.86 107.86 0 0 1  323.57 539.29 L 215.71 647.15 A 107.86 107.86 0 0 0 323.57 539.29" fill="#ffcad7"/><rect x="323.57" y="539.29" width="107.86" height="107.86" fill="#ff93ad"/><rect x="323.57" y="539.29" width="107.86" height="107.86" fill="#ff4874"/><rect x="431.43" y="539.29" width="107.86" height="107.86" fill="#e7b6f6"/><polygon points="431.43,539.29 539.29,539.29 431.43,647.15" fill="#ff426f"/><rect x="539.29" y="539.29" width="107.86" height="107.86" fill="#fffbfc"/><rect x="539.29" y="539.29" width="107.86" height="107.86" fill="#ecc5f8"/><rect x="647.14" y="539.29" width="107.86" height="107.86" fill="#ffced9"/><polygon points="647.14,539.29 755,539.29 755,647.15" fill="#ffa0b6"/><rect x="755" y="539.29" width="107.86" height="107.86" fill="#ff809e"/><rect x="755" y="539.29" width="107.86" height="107.86" fill="#e9bdf7"/><rect x="862.86" y="539.29" width="107.86" height="107.86" fill="#ff5c83"/><path d="M 862.86 647.15 A 107.86 107.86 0 0 1  970.72 539.29 L 862.86 647.15 A 107.86 107.86 0 0 0 970.72 539.29" fill="#ff6e91"/><rect x="970.71" y="539.29" width="107.86" height="107.86" fill="#ff5880"/><path d="M 970.71 647.15 A 107.86 107.86 0 0 1  1078.57 539.29 L 970.71 647.15 A 107.86 107.86 0 0 0 1078.57 539.29" fill="#ff6f91"/><rect x="1078.57" y="539.29" width="107.86" height="107.86" fill="#c857ea"/><path d="M 1078.57 647.15 A 107.86 107.86 0 0 1  1186.4299999999998 539.29 L 1186.4299999999998 647.15" fill="#d37aee"/><rect x="1186.43" y="539.29" width="107.86" height="107.86" fill="#ebc1f7"/><polygon points="1294.29,539.29 1294.29,647.15 1186.43,647.15" fill="#ce6bec"/><rect x="1294.29" y="539.29" width="107.86" height="107.86" fill="#e7b6f6"/><rect x="1294.29" y="539.29" width="107.86" height="107.86" fill="#ffaec1"/><rect x="1402.14" y="539.29" width="107.86" height="107.86" fill="#ffa3b9"/><polygon points="1402.14,539.29 1510,647.15 1402.14,647.15" fill="#ff3867"/><rect x="0" y="647.14" width="107.86" height="107.86" fill="#e7b5f6"/><rect x="0" y="647.14" width="107.86" height="107.86" fill="#ffe3e9"/><rect x="107.86" y="647.14" width="107.86" height="107.86" fill="#fbf2fd"/><polygon points="215.72,647.14 215.72,755 107.86,755" fill="#ff3a69"/><rect x="215.71" y="647.14" width="107.86" height="107.86" fill="#c95ceb"/><path d="M 215.71 755 A 107.86 107.86 0 0 1  323.57 647.14 L 323.57 755" fill="#e2a7f4"/><rect x="323.57" y="647.14" width="107.86" height="107.86" fill="#d57fef"/><polygon points="323.57,647.14 431.43,755 323.57,755" fill="#ba2de5"/><rect x="431.43" y="647.14" width="107.86" height="107.86" fill="#cd67ec"/><path d="M 431.43 755 A 107.86 107.86 0 0 1  539.29 647.14 L 539.29 755" fill="#ff9cb3"/><rect x="539.29" y="647.14" width="107.86" height="107.86" fill="#e3aaf4"/><polygon points="539.29,647.14 647.15,755 539.29,755" fill="#ffe1e8"/><rect x="647.14" y="647.14" width="107.86" height="107.86" fill="#ffa9bd"/><path d="M 647.14 647.14 A 107.86 107.86 0 0 0 755 755 L 755 647.14" fill="#ff507a"/><rect x="755" y="647.14" width="107.86" height="107.86" fill="#be3ae6"/><rect x="755" y="647.14" width="107.86" height="107.86" fill="#ff8ea9"/><rect x="862.86" y="647.14" width="107.86" height="107.86" fill="#ff99b1"/><path d="M 862.86 647.14 A 107.86 107.86 0 0 1 970.72 755 L 862.86 755" fill="#ff819f"/><rect x="970.71" y="647.14" width="107.86" height="107.86" fill="#ffb0c3"/><rect x="970.71" y="647.14" width="107.86" height="107.86" fill="#ffb4c6"/><rect x="1078.57" y="647.14" width="107.86" height="107.86" fill="#ffbfce"/><path d="M 1078.57 647.14 A 107.86 107.86 0 0 1 1186.4299999999998 755 L 1078.57 755" fill="#d174ee"/><rect x="1186.43" y="647.14" width="107.86" height="107.86" fill="#ffced9"/><path d="M 1186.43 647.14 A 107.86 107.86 0 0 1 1294.29 755 L 1186.43 755" fill="#ffd0db"/><rect x="1294.29" y="647.14" width="107.86" height="107.86" fill="#f8e9fc"/><polygon points="1294.29,647.14 1402.1499999999999,755 1294.29,755" fill="#ff7b9a"/><rect x="1402.14" y="647.14" width="107.86" height="107.86" fill="#c349e8"/><polygon points="1402.14,647.14 1510,755 1402.14,755" fill="#ffecf1"/></g></svg>