<?xml version="1.0" standalone="no"?>
<!DOCTYPE svg PUBLIC "-//W3C//DTD SVG 20010904//EN"
 "http://www.w3.org/TR/2001/REC-SVG-20010904/DTD/svg10.dtd">
<svg version="1.0" xmlns="http://www.w3.org/2000/svg"
 width="989.000000pt" height="989.000000pt" viewBox="0 0 989.000000 989.000000"
 preserveAspectRatio="xMidYMid meet">
<metadata>
Created by potrace 1.14, written by Peter Selinger 2001-2017
</metadata>
<g transform="translate(0.000000,989.000000) scale(0.100000,-0.100000)"
fill="#000000" stroke="none">
<path d="M3735 9590 c5 -9 -23 -15 -47 -11 -5 0 -8 -4 -8 -11 0 -6 -3 -8 -7
-5 -3 4 -17 0 -30 -8 -13 -9 -28 -13 -33 -10 -6 3 -10 -1 -10 -10 0 -9 -4 -14
-9 -11 -5 3 -12 -1 -15 -10 -4 -9 -9 -14 -12 -12 -6 7 -104 -83 -104 -95 0 -4
-11 -20 -24 -34 -14 -15 -23 -30 -20 -35 3 -4 0 -8 -5 -8 -6 0 -11 -7 -11 -15
0 -8 -5 -15 -12 -15 -6 0 -9 -3 -5 -6 3 -3 -4 -23 -17 -43 -23 -36 -36 -66
-35 -77 0 -4 -4 -10 -9 -13 -12 -8 -67 -113 -64 -123 1 -5 -3 -8 -10 -8 -6 0
-9 -3 -5 -6 3 -3 -3 -16 -14 -27 -11 -12 -18 -26 -15 -33 2 -6 -4 -17 -14 -24
-11 -8 -17 -17 -14 -22 3 -4 -4 -20 -15 -34 -12 -15 -21 -32 -21 -40 0 -7 -5
-14 -10 -16 -6 -2 -12 -13 -13 -25 0 -13 -7 -25 -14 -27 -7 -3 -13 -15 -13
-26 0 -11 -4 -20 -10 -20 -5 0 -10 -5 -10 -12 0 -6 -8 -20 -17 -31 -13 -15
-14 -19 -3 -13 8 4 6 0 -5 -9 -11 -9 -19 -19 -18 -23 3 -12 -29 -72 -38 -72
-5 0 -8 -3 -7 -7 2 -10 -28 -75 -39 -86 -4 -5 -8 -12 -9 -15 -1 -17 -39 -82
-46 -82 -5 0 -6 -4 -3 -10 3 -5 1 -10 -5 -10 -6 0 -9 -4 -5 -9 3 -5 0 -15 -7
-23 -7 -7 -14 -20 -16 -28 -2 -8 -8 -17 -13 -18 -5 -2 -7 -7 -4 -12 3 -5 -1
-14 -8 -22 -12 -12 -29 -45 -31 -60 -1 -4 -7 -13 -13 -19 -7 -7 -13 -19 -13
-26 0 -8 -6 -16 -13 -19 -7 -2 -14 -14 -14 -27 -1 -12 -7 -23 -13 -25 -5 -2
-10 -10 -10 -17 0 -8 -7 -21 -16 -29 -8 -9 -13 -16 -10 -16 4 0 -5 -18 -20
-41 -14 -22 -23 -47 -20 -55 3 -8 2 -13 -3 -10 -5 3 -21 -20 -37 -52 -15 -31
-31 -60 -36 -63 -5 -3 -10 -12 -12 -20 -1 -8 -8 -25 -16 -39 -8 -14 -13 -28
-12 -32 1 -5 -3 -8 -9 -8 -5 0 -7 -4 -4 -10 3 -5 2 -10 -3 -10 -13 0 -33 -56
-24 -66 4 -4 2 -4 -5 0 -12 7 -66 -87 -56 -98 4 -3 1 -6 -5 -6 -6 0 -16 -16
-23 -35 -7 -19 -17 -35 -22 -35 -4 0 -5 -4 -2 -10 3 -5 2 -10 -3 -10 -8 0 -20
-28 -20 -47 0 -3 -4 -9 -9 -12 -4 -3 -17 -24 -28 -46 -11 -22 -26 -46 -33 -53
-7 -8 -10 -18 -7 -23 4 -5 2 -9 -4 -9 -5 0 -13 -10 -17 -22 -3 -13 -15 -35
-25 -49 -10 -14 -16 -29 -12 -33 3 -3 1 -6 -6 -6 -8 0 -11 -7 -7 -15 3 -9 0
-15 -9 -15 -8 0 -14 -3 -13 -7 2 -12 -36 -93 -44 -93 -3 0 -9 -13 -13 -30 -4
-16 -10 -30 -14 -30 -4 0 -13 -16 -20 -35 -7 -19 -17 -35 -23 -35 -5 0 -8 -6
-5 -14 3 -8 -1 -17 -10 -20 -8 -4 -13 -12 -10 -20 3 -7 -3 -19 -13 -26 -10 -7
-16 -19 -13 -27 3 -7 1 -13 -3 -13 -5 0 -18 -19 -29 -43 -10 -23 -27 -53 -37
-66 -10 -13 -15 -27 -12 -32 3 -5 1 -9 -5 -9 -5 0 -13 -9 -16 -21 -4 -11 -22
-46 -40 -79 -18 -32 -31 -61 -27 -64 3 -3 0 -6 -7 -6 -7 0 -9 -4 -6 -10 3 -5
1 -10 -4 -10 -6 0 -10 -3 -9 -7 2 -5 -7 -24 -19 -43 -12 -19 -23 -41 -25 -49
-2 -8 -11 -23 -21 -33 -10 -10 -15 -23 -12 -28 4 -6 1 -10 -5 -10 -6 0 -8 -4
-5 -10 3 -5 2 -10 -4 -10 -6 0 -13 -11 -17 -25 -3 -14 -10 -25 -14 -25 -4 0
-11 -10 -15 -22 -4 -13 -8 -25 -9 -28 -1 -3 -12 -20 -23 -39 -12 -19 -20 -38
-17 -43 3 -4 0 -8 -5 -8 -6 0 -11 -7 -11 -15 0 -8 -5 -15 -12 -15 -6 0 -8 -3
-5 -7 4 -3 0 -15 -10 -25 -9 -10 -12 -18 -8 -18 4 0 1 -8 -7 -17 -9 -10 -19
-29 -23 -43 -4 -14 -16 -36 -26 -49 -11 -13 -19 -30 -19 -37 0 -8 -5 -14 -11
-14 -5 0 -7 -4 -4 -10 3 -5 1 -10 -4 -10 -6 0 -11 -7 -11 -15 0 -8 -5 -15 -11
-15 -5 0 -8 -4 -4 -9 3 -5 0 -15 -7 -23 -7 -7 -14 -19 -16 -27 -1 -7 -9 -20
-17 -28 -9 -8 -13 -19 -10 -24 4 -5 1 -9 -5 -9 -6 0 -9 -4 -6 -9 4 -5 3 -11
-1 -13 -5 -1 -19 -25 -32 -53 -14 -27 -32 -59 -40 -69 -14 -17 -14 -18 -1 -11
8 4 5 -2 -7 -14 -13 -12 -23 -28 -23 -36 0 -7 -6 -20 -12 -27 -7 -7 -14 -20
-16 -28 -2 -7 -12 -26 -23 -42 -11 -15 -17 -28 -13 -28 4 0 -3 -11 -15 -24
-13 -14 -20 -29 -17 -35 4 -5 -2 -14 -11 -20 -10 -5 -17 -11 -16 -13 6 -8 -10
-48 -19 -48 -5 0 -7 -4 -4 -9 3 -5 -1 -11 -9 -15 -8 -3 -15 -12 -15 -19 0 -14
-29 -78 -39 -87 -12 -10 -41 -72 -41 -86 0 -8 -5 -14 -11 -14 -5 0 -7 -4 -4
-10 3 -6 1 -10 -4 -10 -6 0 -11 -7 -11 -15 0 -8 -5 -15 -12 -15 -6 0 -8 -3 -5
-6 4 -4 -3 -20 -14 -35 -11 -16 -17 -29 -12 -29 4 0 3 -4 -4 -8 -6 -4 -13 -14
-15 -22 -2 -8 -10 -21 -18 -28 -13 -12 -13 -12 0 -6 8 5 5 -4 -8 -20 -12 -16
-20 -32 -17 -36 3 -4 -2 -11 -11 -14 -8 -3 -12 -10 -9 -16 3 -5 1 -10 -5 -10
-6 0 -8 -4 -5 -10 3 -5 2 -10 -3 -10 -4 0 -14 -16 -22 -35 -8 -19 -18 -35 -23
-35 -5 0 -7 -9 -4 -20 3 -13 1 -18 -6 -13 -6 4 -8 -2 -4 -16 5 -19 3 -21 -11
-9 -9 7 -14 9 -10 4 4 -5 2 -18 -4 -30 -7 -11 -11 -24 -10 -28 1 -5 -3 -8 -8
-8 -6 0 -10 -7 -10 -15 0 -8 -6 -15 -12 -15 -9 0 -8 -4 2 -10 13 -8 12 -10 -2
-10 -10 0 -17 -3 -16 -7 2 -11 -24 -65 -40 -82 -7 -7 -11 -20 -8 -28 3 -8 2
-12 -3 -9 -9 6 -21 -15 -27 -44 -2 -8 -8 -16 -13 -18 -6 -2 -11 -12 -11 -23 0
-10 -5 -19 -12 -19 -6 0 -8 -3 -5 -6 4 -4 -2 -19 -13 -34 -11 -16 -20 -33 -20
-39 0 -7 -9 -21 -20 -33 -11 -12 -20 -29 -20 -37 0 -9 -9 -27 -20 -41 -11 -14
-20 -30 -20 -36 0 -6 -7 -17 -15 -24 -9 -7 -14 -19 -11 -26 3 -7 -2 -15 -10
-18 -9 -3 -13 -10 -10 -15 3 -5 -1 -14 -9 -21 -8 -7 -12 -16 -10 -21 3 -4 -1
-11 -9 -16 -8 -4 -15 -12 -15 -18 0 -12 -63 -138 -72 -145 -7 -6 -19 -41 -18
-54 0 -5 -4 -12 -10 -15 -9 -6 -23 -57 -25 -93 0 -10 -4 -18 -9 -18 -5 0 -7
-7 -4 -15 4 -8 2 -17 -3 -20 -5 -3 -7 -12 -3 -20 3 -9 -1 -15 -8 -16 -8 0 -5
-4 6 -9 18 -8 18 -9 2 -9 -15 -1 -16 -5 -7 -21 6 -11 7 -20 3 -20 -4 0 -1 -5
7 -10 12 -8 12 -10 1 -10 -10 0 -11 -3 -2 -13 6 -8 9 -16 6 -18 -2 -3 1 -23 7
-45 6 -21 11 -42 10 -46 -1 -5 2 -8 8 -8 5 0 7 -6 4 -14 -3 -8 -1 -17 5 -21 6
-3 11 -15 11 -26 0 -10 4 -19 8 -19 4 0 15 -13 25 -29 9 -15 32 -46 52 -67 19
-21 35 -43 35 -48 0 -4 7 -5 16 -2 8 3 12 2 9 -4 -6 -9 8 -14 28 -11 5 1 6 -3
2 -9 -3 -5 -1 -10 5 -10 6 0 8 -5 4 -12 -4 -6 -3 -8 3 -5 6 4 21 -5 33 -18 13
-14 30 -25 37 -25 8 0 11 -5 8 -10 -3 -6 1 -10 10 -10 9 0 13 -4 10 -10 -5 -9
15 -15 37 -11 4 0 4 -7 1 -17 -3 -9 -3 -14 2 -10 4 4 15 0 24 -10 9 -9 29 -24
44 -32 16 -8 33 -22 38 -32 5 -10 17 -18 25 -18 8 0 12 -5 9 -10 -3 -6 -3 -10
2 -10 4 0 23 -13 42 -29 19 -17 39 -28 43 -25 5 3 7 0 6 -8 -2 -7 3 -12 10
-10 6 1 12 -4 12 -12 0 -8 9 -18 20 -21 11 -3 20 -11 20 -16 0 -6 4 -8 8 -5 5
3 15 -4 22 -15 8 -10 18 -19 23 -19 4 0 19 -10 32 -22 51 -49 73 -68 78 -68 3
0 18 -11 33 -25 15 -14 33 -25 41 -25 8 0 11 -5 8 -10 -3 -6 2 -13 12 -17 10
-4 28 -16 40 -28 13 -11 34 -30 48 -43 14 -12 25 -19 25 -15 0 4 6 1 13 -8 7
-9 22 -21 35 -28 12 -7 20 -16 17 -22 -4 -5 1 -9 9 -9 9 0 16 -5 16 -12 0 -6
3 -9 6 -6 3 3 22 -9 42 -28 20 -19 41 -34 45 -34 8 0 37 -24 92 -77 13 -12 25
-20 28 -17 2 3 12 -7 21 -21 9 -14 23 -25 30 -25 8 0 16 -3 18 -7 7 -17 96
-82 102 -75 4 3 4 -2 0 -11 -3 -10 -3 -17 2 -16 16 4 44 -13 38 -22 -3 -5 1
-9 8 -9 8 0 32 -17 53 -37 22 -21 52 -44 68 -52 15 -8 27 -20 27 -27 0 -8 8
-11 20 -9 11 2 18 0 15 -5 -3 -5 0 -14 7 -20 7 -5 26 -22 41 -35 16 -14 32
-23 37 -20 5 3 11 -4 15 -15 4 -11 10 -18 15 -15 4 3 11 -2 14 -11 4 -9 13
-14 22 -10 8 3 13 2 9 -3 -7 -12 44 -53 56 -45 5 3 8 0 7 -6 -2 -7 5 -17 16
-23 10 -7 33 -26 51 -44 19 -17 43 -34 54 -38 12 -3 19 -10 16 -15 -3 -4 6
-11 20 -14 14 -4 25 -13 25 -20 0 -8 11 -17 25 -20 14 -4 34 -14 44 -24 10 -9
22 -18 27 -19 5 -1 18 -5 28 -9 13 -5 17 -4 12 4 -4 7 4 5 20 -3 15 -8 31 -12
36 -9 4 3 8 0 8 -5 0 -6 10 -11 23 -11 12 0 32 -1 45 -1 13 0 35 -4 49 -10 22
-8 24 -7 19 7 -5 13 -3 14 6 7 13 -11 20 -10 73 2 17 4 45 9 62 12 18 3 31 9
28 13 -3 5 6 7 20 4 14 -2 25 0 25 6 0 5 6 10 13 10 14 0 127 76 139 94 4 6 8
8 8 4 0 -4 19 12 43 35 23 23 47 44 52 45 6 2 24 15 40 30 17 15 33 26 38 24
4 -1 7 5 7 13 0 9 6 12 15 9 8 -4 15 -2 15 4 0 5 7 13 16 16 9 3 12 2 9 -5 -4
-5 -1 -17 7 -26 11 -14 11 -16 -1 -8 -10 6 -12 4 -6 -6 5 -7 10 -27 12 -43 2
-17 7 -32 12 -35 4 -4 7 -14 5 -24 -1 -9 3 -23 9 -30 7 -6 13 -25 15 -42 2
-16 7 -32 10 -35 4 -3 9 -14 10 -25 2 -11 9 -26 15 -34 10 -12 9 -13 -3 -6
-11 6 -10 3 3 -12 9 -11 14 -23 10 -26 -3 -4 -1 -7 5 -7 7 0 12 -9 12 -20 0
-11 4 -20 9 -20 8 0 17 -21 26 -58 2 -7 13 -21 24 -31 11 -10 18 -21 14 -24
-3 -4 2 -9 11 -13 9 -3 14 -10 11 -14 -3 -5 7 -22 22 -38 16 -16 29 -35 31
-42 2 -8 13 -22 24 -32 12 -10 17 -18 12 -18 -5 0 2 -7 14 -16 12 -8 20 -20
17 -25 -4 -5 1 -9 9 -9 9 0 16 -5 16 -10 0 -14 60 -76 71 -72 5 1 8 -2 7 -6
-3 -10 60 -72 73 -72 5 0 9 -4 9 -10 0 -5 6 -10 14 -10 8 0 17 -7 20 -16 3 -8
10 -12 16 -9 5 3 10 -1 10 -9 0 -9 3 -15 8 -15 20 3 32 -2 32 -16 0 -13 18
-20 42 -16 4 0 5 -6 2 -13 -4 -10 5 -16 25 -21 18 -4 31 -13 31 -22 0 -9 6
-13 15 -9 8 3 15 1 15 -4 0 -6 6 -10 14 -10 7 0 19 -7 26 -15 7 -9 18 -14 24
-12 6 2 17 -3 25 -10 7 -8 21 -11 29 -8 9 3 13 3 9 -1 -9 -9 47 -34 74 -34 11
0 19 -6 19 -12 0 -10 2 -10 9 0 7 11 9 11 14 -2 4 -9 14 -13 27 -11 11 2 20
-1 20 -7 0 -6 3 -8 7 -5 3 4 12 2 20 -4 10 -9 13 -8 13 2 0 8 6 5 15 -7 10
-14 14 -15 15 -5 0 12 3 12 12 3 7 -7 24 -12 38 -12 15 0 30 -3 34 -7 8 -8 31
-14 71 -16 17 -1 32 -4 35 -7 10 -10 69 -28 75 -22 10 10 45 9 45 -1 0 -5 7
-4 15 3 12 10 16 9 20 -2 3 -8 12 -15 20 -15 10 0 12 4 5 12 -6 7 -3 11 10 11
10 0 16 -4 14 -8 -3 -4 -2 -8 3 -9 4 0 16 -2 26 -4 9 -2 15 0 12 5 -3 4 2 10
10 14 8 3 17 0 21 -6 5 -7 2 -8 -6 -3 -9 6 -11 4 -5 -5 6 -10 11 -9 22 5 9 14
13 15 13 4 0 -12 2 -12 10 1 7 12 10 12 10 1 0 -9 6 -11 18 -6 9 4 31 9 47 10
17 1 41 8 54 14 15 8 21 9 17 2 -10 -16 0 -13 18 5 10 10 16 11 16 3 0 -9 4
-8 15 1 8 7 15 9 15 6 0 -4 10 -1 22 5 12 6 41 13 66 14 25 2 48 8 51 13 6 8
63 22 104 25 9 1 17 5 17 8 0 4 10 11 23 14 28 9 86 33 112 48 11 6 40 21 64
33 24 12 54 32 68 44 13 11 35 25 49 30 13 5 24 14 24 20 0 5 7 10 15 10 7 0
19 8 24 17 6 10 11 14 11 9 0 -5 12 4 26 20 15 16 23 22 19 14 -4 -8 6 0 24
18 17 18 31 31 31 27 0 -3 14 8 30 25 17 17 30 35 30 40 0 6 3 9 8 8 4 -2 8 0
10 5 1 4 20 25 42 47 22 22 37 40 34 40 -3 0 2 7 10 16 9 8 13 20 10 26 -4 6
-3 9 2 6 11 -6 45 28 37 36 -3 3 2 8 11 12 9 3 16 12 16 20 0 8 5 14 11 14 5
0 8 4 5 8 -3 5 4 16 15 25 11 10 17 21 14 26 -2 5 2 11 10 15 8 3 15 12 15 21
0 8 5 15 10 15 6 0 9 3 8 8 -3 11 36 92 44 92 4 0 5 7 2 15 -4 9 0 15 7 15 12
0 12 2 1 9 -11 7 -11 9 2 14 9 4 16 11 16 17 0 6 -6 8 -12 4 -7 -4 -5 2 5 13
10 11 20 33 23 48 3 16 9 36 15 47 5 10 7 18 3 18 -3 0 0 8 7 17 12 15 12 16
-1 8 -12 -7 -13 -6 -3 6 7 9 13 30 15 47 1 18 6 32 11 32 4 0 7 8 5 17 -1 10
1 23 5 30 10 16 37 5 37 -14 0 -8 4 -11 10 -8 5 3 10 1 10 -4 0 -6 7 -11 16
-11 8 0 12 -4 9 -10 -3 -5 -2 -10 2 -10 5 0 28 -18 51 -40 23 -23 42 -35 43
-28 0 7 4 3 10 -10 5 -13 13 -20 19 -17 5 3 10 -2 10 -11 0 -10 3 -15 6 -12 3
3 19 -7 36 -23 17 -15 35 -26 40 -23 4 3 8 1 8 -4 0 -5 9 -19 20 -32 11 -13
20 -18 20 -11 0 6 12 1 27 -13 24 -23 76 -43 96 -38 4 1 7 -2 7 -6 0 -4 14 -9
32 -10 17 -2 38 -8 47 -15 12 -9 13 -9 7 1 -4 6 -3 12 3 12 5 0 12 -4 15 -9 6
-10 125 -7 171 3 17 4 39 9 50 11 11 1 36 9 55 16 19 7 39 12 44 11 5 -2 6 4
3 12 -4 10 -1 13 9 9 7 -3 14 0 14 6 0 6 7 11 15 11 9 0 18 6 21 14 3 8 19 20
35 26 16 7 29 19 29 28 0 8 3 12 6 9 7 -6 44 20 114 82 19 17 40 35 46 40 7 5
15 7 18 4 3 -4 6 2 6 12 0 10 3 16 6 12 6 -6 24 6 52 36 9 9 20 17 24 17 4 0
24 15 44 34 21 19 42 32 48 29 5 -3 6 -1 2 5 -3 6 3 13 14 17 11 4 18 11 15
16 -4 5 -1 9 5 9 17 0 40 26 32 35 -4 5 -1 5 6 1 8 -5 18 -2 25 6 10 12 80 69
122 100 6 4 23 19 39 33 16 13 34 22 40 18 6 -3 8 -3 4 2 -4 4 5 18 20 29 32
24 53 41 87 74 14 13 25 20 25 17 0 -3 11 5 24 19 13 15 26 26 30 26 3 0 20
12 37 28 17 15 35 26 40 25 4 -2 11 6 14 17 4 11 12 20 18 20 7 0 18 9 25 20
7 11 18 20 25 20 7 0 19 9 27 20 8 11 20 20 27 20 6 0 18 9 26 20 8 11 16 18
19 15 2 -3 23 13 46 35 23 22 44 40 48 40 4 0 14 7 23 15 9 8 26 23 39 35 12
11 27 20 33 20 5 0 7 5 4 10 -3 6 1 10 9 10 8 0 22 10 30 22 9 12 16 18 16 13
0 -5 14 5 30 23 17 18 30 30 30 26 0 -4 9 3 20 16 11 13 20 20 20 17 0 -4 9 1
20 10 11 10 29 26 40 36 11 9 22 17 24 17 6 0 52 38 87 73 16 15 29 25 29 22
0 -3 12 7 26 22 14 15 29 28 32 28 8 -1 39 24 61 48 8 9 20 17 26 17 6 0 16 9
23 20 7 12 17 18 22 15 6 -3 10 1 10 9 0 9 6 15 13 14 6 -2 11 3 9 10 -1 8 1
11 6 8 13 -8 75 52 66 65 -4 7 -3 9 3 6 10 -6 43 26 43 43 0 6 4 10 10 10 12
0 41 55 33 64 -4 3 -2 6 4 6 5 0 11 6 12 13 1 6 3 26 5 42 3 17 5 31 6 33 2 1
3 6 4 11 0 5 4 13 9 17 11 11 8 172 -3 179 -6 4 -8 11 -5 16 4 5 3 14 -1 21
-4 7 -9 21 -10 32 -2 19 -10 54 -14 66 -1 3 -2 8 -1 12 0 5 -3 8 -9 8 -5 0
-10 9 -10 20 0 11 -4 20 -9 20 -8 0 -15 16 -19 43 -1 4 -8 15 -17 23 -8 9 -13
20 -10 25 4 5 2 9 -4 9 -5 0 -13 9 -16 20 -4 11 -9 18 -13 16 -4 -2 -8 7 -9
21 0 14 -5 28 -11 32 -5 3 -12 16 -16 29 -4 12 -12 22 -18 22 -5 0 -7 7 -4 15
3 9 -1 18 -9 21 -8 4 -12 10 -9 15 3 5 0 9 -5 9 -6 0 -11 9 -11 20 0 11 -4 20
-8 20 -4 0 -14 16 -21 35 -7 19 -17 35 -22 35 -5 0 -8 4 -7 8 3 8 -43 104 -54
112 -3 3 -10 18 -13 33 -4 15 -14 27 -24 27 -14 0 -14 2 -1 10 10 6 11 10 3
10 -7 0 -13 9 -13 21 0 11 -4 17 -10 14 -5 -3 -10 3 -10 14 0 12 -5 21 -11 21
-5 0 -8 4 -5 9 4 5 2 11 -4 13 -6 2 -12 14 -15 28 -3 13 -12 28 -20 33 -8 4
-12 13 -9 19 4 6 3 13 -2 17 -16 11 -74 128 -67 135 4 3 0 6 -8 6 -8 0 -15 10
-16 22 -1 11 -6 24 -10 27 -5 3 -19 29 -33 56 -14 28 -28 52 -33 53 -4 2 -5 8
-1 13 3 5 0 9 -7 9 -7 0 -9 3 -6 6 4 4 -2 19 -12 33 -9 14 -29 52 -44 84 -15
31 -32 57 -39 57 -6 0 -9 3 -5 6 6 6 -61 145 -76 155 -5 3 -8 8 -6 10 5 7 -33
79 -42 79 -5 0 -6 6 -3 13 3 8 -2 20 -11 27 -8 7 -15 18 -15 25 0 8 -5 15 -10
17 -6 2 -12 13 -13 26 0 12 -4 22 -8 22 -7 0 -33 52 -31 63 1 4 -2 7 -6 7 -4
0 -14 16 -21 35 -7 19 -17 35 -22 35 -6 0 -8 4 -4 9 3 5 -1 15 -8 23 -7 7 -19
28 -26 46 -7 17 -17 32 -22 32 -5 0 -6 6 -3 13 3 8 -2 20 -11 27 -8 7 -15 19
-15 26 0 8 -5 14 -11 14 -6 0 -9 7 -5 15 3 8 1 15 -4 15 -5 0 -12 11 -16 25
-3 14 -10 25 -15 25 -5 0 -9 9 -9 20 0 11 -3 20 -7 20 -5 0 -19 25 -33 55 -14
30 -28 55 -32 55 -5 0 -8 9 -8 20 0 11 -4 20 -9 20 -8 0 -24 37 -22 53 1 4 -7
7 -17 7 -14 0 -15 2 -2 10 9 6 10 10 3 10 -6 0 -17 16 -23 35 -6 19 -16 35
-21 35 -5 0 -8 3 -7 8 3 9 -32 75 -44 83 -5 3 -9 8 -7 10 4 6 -34 83 -48 97
-7 8 -11 18 -8 23 4 5 3 9 -2 9 -4 0 -14 15 -21 33 -7 17 -17 39 -23 47 -5 8
-18 34 -30 58 -12 23 -25 45 -30 48 -5 3 -9 14 -9 24 0 10 -7 23 -16 28 -9 5
-16 11 -15 13 2 15 -13 49 -22 49 -6 0 -7 3 -4 6 4 4 -3 20 -14 35 -11 16 -17
29 -14 29 4 0 -1 7 -9 16 -9 8 -14 20 -11 25 4 5 2 9 -3 9 -4 0 -14 16 -22 35
-8 19 -17 35 -22 35 -4 0 -7 3 -7 8 4 21 -2 32 -13 26 -7 -4 -10 -4 -6 1 4 4
0 22 -9 39 -10 17 -16 35 -15 39 1 4 -5 10 -13 13 -8 3 -13 10 -10 14 3 5 -1
15 -9 23 -8 8 -12 17 -9 21 4 3 1 6 -6 6 -7 0 -10 4 -7 8 3 5 -8 28 -24 52
-16 24 -27 47 -24 52 3 4 1 8 -4 8 -9 0 -25 37 -23 53 1 4 -3 7 -8 7 -9 0 -21
26 -20 43 0 5 -8 16 -19 25 -10 9 -17 23 -15 30 3 6 0 12 -7 12 -6 0 -8 5 -5
10 3 6 1 10 -5 10 -7 0 -10 7 -6 15 3 8 1 15 -4 15 -8 0 -61 99 -62 117 -1 4
-7 13 -15 18 -7 6 -15 21 -18 34 -2 14 -9 27 -14 30 -5 4 -11 13 -13 21 -2 8
-9 21 -16 28 -7 8 -10 18 -7 23 4 5 2 9 -4 9 -5 0 -15 16 -22 35 -7 19 -17 35
-21 35 -4 0 -8 7 -8 15 0 8 -4 15 -10 15 -5 0 -10 11 -10 25 0 14 -4 25 -9 25
-5 0 -15 16 -21 35 -6 19 -16 35 -21 35 -6 0 -8 4 -4 9 3 5 -2 16 -10 24 -8 9
-15 20 -15 26 0 6 -4 11 -10 11 -5 0 -7 6 -4 13 3 8 -2 20 -11 27 -8 7 -15 18
-15 25 0 7 -7 18 -15 25 -8 7 -13 16 -10 20 3 5 1 11 -5 15 -6 4 -8 11 -5 16
4 5 -1 9 -9 9 -10 0 -16 9 -16 21 0 11 -7 27 -15 36 -8 8 -13 19 -10 24 4 5 2
9 -2 9 -5 0 -15 16 -22 35 -7 19 -17 35 -22 35 -6 0 -7 5 -4 10 3 6 1 10 -5
10 -7 0 -10 6 -7 14 3 8 -1 17 -9 20 -9 3 -12 10 -9 16 3 5 2 10 -3 10 -9 0
-25 37 -23 53 1 4 -4 7 -11 7 -6 0 -9 3 -5 6 3 4 0 13 -8 21 -8 8 -18 26 -22
41 -3 15 -10 29 -14 32 -4 3 -23 36 -42 73 -18 37 -36 65 -38 62 -3 -2 -6 5
-6 17 -1 12 -8 25 -15 29 -7 5 -9 9 -4 9 5 0 2 8 -6 18 -16 18 -69 127 -67
138 0 4 -6 11 -15 16 -9 5 -16 18 -16 28 0 11 -4 20 -10 20 -5 0 -10 9 -10 20
0 11 -5 20 -11 20 -5 0 -7 5 -4 10 3 6 1 10 -4 10 -6 0 -11 7 -11 15 0 8 -5
15 -11 15 -5 0 -8 4 -4 9 3 5 -1 15 -8 23 -8 7 -17 26 -21 41 -4 17 -11 25
-18 21 -6 -4 -8 -3 -4 4 3 6 2 13 -4 17 -6 4 -8 11 -5 16 4 5 2 9 -3 9 -9 0
-34 51 -34 67 0 4 -6 12 -14 16 -8 5 -12 12 -9 18 4 5 2 9 -2 9 -9 0 -37 59
-34 73 0 4 -4 7 -10 7 -5 0 -7 5 -4 10 3 6 -1 13 -9 16 -9 3 -14 10 -11 14 3
5 -2 15 -10 23 -8 9 -15 22 -15 29 0 8 -9 24 -20 36 -11 12 -20 24 -20 27 0 3
-9 15 -20 27 -11 12 -20 28 -20 35 0 8 -5 11 -10 8 -6 -3 -13 1 -16 9 -3 9
-12 16 -20 16 -8 0 -14 7 -14 15 0 8 -7 15 -15 15 -9 0 -18 7 -21 15 -4 8 -10
15 -15 15 -6 0 -21 8 -36 17 -14 10 -35 19 -47 20 -11 2 -24 9 -28 16 -4 6 -8
8 -8 4 0 -4 -9 -3 -19 3 -14 7 -21 6 -24 -3 -4 -9 -6 -9 -6 1 -1 7 -5 10 -11
7 -5 -3 -10 -1 -10 4 0 8 -359 11 -1180 11 -772 0 -1179 -4 -1175 -10z"/>
</g>
</svg>
