<svg xmlns="http://www.w3.org/2000/svg" version="1.1" xmlnsXlink="http://www.w3.org/1999/xlink" xmlnsSvgjs="http://svgjs.com/svgjs" width="1440" height="560" preserveAspectRatio="none" viewBox="0 0 1440 560"><g mask="url(&quot;#SvgjsMask1007&quot;)" fill="none"><path d="M1481.52 443.95C1373.31 443.72 1267.95 373.95 1054.38 373.95 840.81 373.95 862.6 453.52 627.24 443.95 391.88 434.38 352.66 18.77 200.1-23.49" stroke="rgba(128, 53, 255, 1)" stroke-width="2"></path><path d="M1598.28 346.24C1496.08 345.98 1396.9 276.24 1195.53 276.24 994.15 276.24 1012.05 353.59 792.78 346.24 573.51 338.89 530.81-36.61 390.03-72.02" stroke="rgba(128, 53, 255, 1)" stroke-width="2"></path><path d="M1608.86 493.38C1504.65 490.09 1456.28 355.43 1224.74 330.98 993.19 306.53 970.06-5.74 840.61-33.06" stroke="rgba(128, 53, 255, 1)" stroke-width="2"></path><path d="M1642.6 196.37C1452.69 199.1 1194.51 426.79 918.41 425.97 642.31 425.15 689.99 39.79 556.31-2.81" stroke="rgba(128, 53, 255, 1)" stroke-width="2"></path><path d="M1621.15 345.3C1468.21 345.78 1269.05 467.93 1019.71 457.3 770.37 446.67 851.01-2.04 718.99-82.06" stroke="rgba(128, 53, 255, 1)" stroke-width="2"></path></g><defs><mask id="SvgjsMask1007"><rect width="1440" height="560" fill="#ffffff"></rect></mask></defs></svg>