<svg width="1343" height="209" viewBox="0 0 1343 209" fill="none" xmlns="http://www.w3.org/2000/svg">
<g filter="url(#filter0_d_25_5)">
<path d="M0.565 158L63.285 68.4L5.685 4.39999H50.485L101.685 60.72V4.39999H140.085V60.72L191.285 4.39999H236.085L178.485 68.4L241.205 158H196.405L152.885 97.84L140.085 111.92V158H101.685V111.92L88.885 97.84L45.365 158H0.565ZM238.625 188.72V122.16H248.865C253.132 118.064 256.972 112.773 260.385 106.288C268.065 91.952 271.905 74.2027 271.905 53.04V4.39999H385.825V122.16H405.025V188.72H366.625V158H277.025V188.72H238.625ZM289.825 122.16H347.425V40.24H310.305V53.04C310.305 73.8613 306.892 91.6107 300.065 106.288C296.822 113.115 293.409 118.405 289.825 122.16ZM433.165 158V4.39999H552.205V38.96H471.565V63.28H534.285V97.84H471.565V123.44H554.765V158H433.165ZM589.415 158V4.39999H623.975L675.175 65.84L726.375 4.39999H760.935V158H722.535V63.28L675.175 119.6L627.815 63.28V158H589.415ZM860.665 158V4.39999H928.505C945.06 4.39999 958.116 8.32533 967.673 16.176C977.401 23.856 982.265 33.1573 982.265 44.08C982.265 55.0027 978.425 63.792 970.745 70.448C967.332 73.52 963.492 75.824 959.225 77.36C965.54 79.2373 970.66 81.712 974.585 84.784C984.825 92.464 989.945 102.363 989.945 114.48C989.945 126.597 984.825 136.923 974.585 145.456C964.516 153.819 950.862 158 933.625 158H860.665ZM899.065 127.28H931.065C936.697 127.28 941.305 125.659 944.889 122.416C948.473 119.173 950.265 115.248 950.265 110.64C950.265 106.032 948.473 102.107 944.889 98.864C941.305 95.6213 936.697 94 931.065 94H899.065V127.28ZM899.065 63.28H925.945C930.894 63.28 934.905 62 937.977 59.44C941.049 56.7093 942.585 53.296 942.585 49.2C942.585 45.104 941.049 41.776 937.977 39.216C934.905 36.4853 930.894 35.12 925.945 35.12H899.065V63.28ZM1064.19 91.44H1097.47L1081.34 45.36H1080.31L1064.19 91.44ZM998.905 158L1059.07 4.39999H1102.59L1162.75 158H1121.79L1110.27 124.72H1051.39L1039.87 158H998.905ZM1298.46 105.52L1322.78 132.4C1317.48 138.373 1311.77 143.323 1305.62 147.248C1290.95 156.976 1274.05 161.84 1254.94 161.84C1230.19 161.84 1209.45 153.989 1192.73 138.288C1176.17 122.416 1167.9 103.387 1167.9 81.2C1167.9 59.0133 1176.17 40.0693 1192.73 24.368C1209.45 8.496 1230.19 0.559998 1254.94 0.559998C1273.71 0.559998 1290.43 5.50933 1305.11 15.408C1311.94 20.016 1317.4 24.88 1321.5 30L1297.18 56.88C1294.1 53.1253 1290.43 49.712 1286.17 46.64C1276.61 39.8133 1266.2 36.4 1254.94 36.4C1241.62 36.4 1230.36 40.8373 1221.14 49.712C1212.1 58.416 1207.58 68.912 1207.58 81.2C1207.58 93.488 1212.1 104.069 1221.14 112.944C1230.36 121.648 1241.62 126 1254.94 126C1266.2 126 1276.78 122.587 1286.68 115.76C1291.63 112.176 1295.55 108.763 1298.46 105.52Z" fill="#FF60C9"/>
</g>
<defs>
<filter id="filter0_d_25_5" x="0.564941" y="0.559998" width="1342.21" height="208.16" filterUnits="userSpaceOnUse" color-interpolation-filters="sRGB">
<feFlood flood-opacity="0" result="BackgroundImageFix"/>
<feColorMatrix in="SourceAlpha" type="matrix" values="0 0 0 0 0 0 0 0 0 0 0 0 0 0 0 0 0 0 127 0" result="hardAlpha"/>
<feOffset dx="20" dy="20"/>
<feComposite in2="hardAlpha" operator="out"/>
<feColorMatrix type="matrix" values="0 0 0 0 1 0 0 0 0 0.35 0 0 0 0 0.857 0 0 0 0.5 0"/>
<feBlend mode="normal" in2="BackgroundImageFix" result="effect1_dropShadow_25_5"/>
<feBlend mode="normal" in="SourceGraphic" in2="effect1_dropShadow_25_5" result="shape"/>
</filter>
</defs>
</svg>
