<svg width="1353" height="401" viewBox="0 0 1353 401" fill="none" xmlns="http://www.w3.org/2000/svg">
<path d="M81.165 294V140.4H149.005C165.56 140.4 178.616 144.325 188.173 152.176C197.901 159.856 202.765 169.157 202.765 180.08C202.765 191.003 198.925 199.792 191.245 206.448C187.832 209.52 183.992 211.824 179.725 213.36C186.04 215.237 191.16 217.712 195.085 220.784C205.325 228.464 210.445 238.363 210.445 250.48C210.445 262.597 205.325 272.923 195.085 281.456C185.016 289.819 171.362 294 154.125 294H81.165ZM119.565 263.28H151.565C157.197 263.28 161.805 261.659 165.389 258.416C168.973 255.173 170.765 251.248 170.765 246.64C170.765 242.032 168.973 238.107 165.389 234.864C161.805 231.621 157.197 230 151.565 230H119.565V263.28ZM119.565 199.28H146.445C151.394 199.28 155.405 198 158.477 195.44C161.549 192.709 163.085 189.296 163.085 185.2C163.085 181.104 161.549 177.776 158.477 175.216C155.405 172.485 151.394 171.12 146.445 171.12H119.565V199.28ZM284.685 227.44H317.965L301.837 181.36H300.813L284.685 227.44ZM219.405 294L279.565 140.4H323.085L383.245 294H342.285L330.765 260.72H271.885L260.365 294H219.405ZM518.955 241.52L543.275 268.4C537.984 274.373 532.267 279.323 526.123 283.248C511.446 292.976 494.55 297.84 475.435 297.84C450.688 297.84 429.952 289.989 413.227 274.288C396.672 258.416 388.395 239.387 388.395 217.2C388.395 195.013 396.672 176.069 413.227 160.368C429.952 144.496 450.688 136.56 475.435 136.56C494.208 136.56 510.934 141.509 525.611 151.408C532.438 156.016 537.899 160.88 541.995 166L517.675 192.88C514.603 189.125 510.934 185.712 506.667 182.64C497.11 175.813 486.699 172.4 475.435 172.4C462.123 172.4 450.859 176.837 441.643 185.712C432.598 194.416 428.075 204.912 428.075 217.2C428.075 229.488 432.598 240.069 441.643 248.944C450.859 257.648 462.123 262 475.435 262C486.699 262 497.28 258.587 507.179 251.76C512.128 248.176 516.054 244.763 518.955 241.52ZM591.815 294L654.535 204.4L596.935 140.4H641.735L692.935 196.72V140.4H731.335V196.72L782.535 140.4H827.335L769.735 204.4L832.455 294H787.655L744.135 233.84L731.335 247.92V294H692.935V247.92L680.135 233.84L636.615 294H591.815ZM829.875 324.72V258.16H840.115C844.382 254.064 848.222 248.773 851.635 242.288C859.315 227.952 863.155 210.203 863.155 189.04V140.4H977.075V258.16H996.275V324.72H957.875V294H868.275V324.72H829.875ZM881.075 258.16H938.675V176.24H901.555V189.04C901.555 209.861 898.142 227.611 891.315 242.288C888.072 249.115 884.659 254.405 881.075 258.16ZM1024.42 294V140.4H1143.46V174.96H1062.82V199.28H1125.54V233.84H1062.82V259.44H1146.01V294H1024.42ZM1207.55 294V176.24H1162.75V140.4H1290.75V176.24H1245.95V294H1207.55Z" fill="#A157FF"/>
</svg>
